<svg xmlns="http://www.w3.org/2000/svg" xmlns:xlink="http://www.w3.org/1999/xlink" width="21.499" height="23.283" viewBox="0 0 21.499 23.283"><defs><style>.a{fill:#2890cb;}.b{clip-path:url(#a);}</style><clipPath id="a"><path class="a" d="M9.931,30.692a1.185,1.185,0,1,0,1.181-1.284,1.232,1.232,0,0,0-1.181,1.284m11.26,0a1.185,1.185,0,1,0,1.181-1.284,1.232,1.232,0,0,0-1.181,1.284M13.946,29.54a2.908,2.908,0,0,0,2.781,3.013,3.018,3.018,0,0,0,0-6.018,2.9,2.9,0,0,0-2.781,3.005M6.373,26.856a1.232,1.232,0,0,0,1.181,1.276,1.28,1.28,0,0,0,0-2.552,1.232,1.232,0,0,0-1.181,1.276m18.375,0A1.184,1.184,0,1,0,25.93,25.58a1.232,1.232,0,0,0-1.181,1.276M10.19,26.3a1.642,1.642,0,0,0,1.569,1.7,1.706,1.706,0,0,0,0-3.4,1.639,1.639,0,0,0-1.569,1.7m9.965,0a1.578,1.578,0,1,0,1.577-1.7,1.643,1.643,0,0,0-1.577,1.7M6,20.648v.519a2.882,2.882,0,0,0,2.773,2.75,2.9,2.9,0,0,0,2.781-3.005,2.9,2.9,0,0,0-2.781-3.005A2.868,2.868,0,0,0,6,20.648m15.938.263a2.789,2.789,0,1,0,5.561,0,2.789,2.789,0,1,0-5.561,0m-9.211,0a4.17,4.17,0,0,0,4,4.322,4.17,4.17,0,0,0,4-4.322,4.17,4.17,0,0,0-4-4.322,4.16,4.16,0,0,0-4,4.322M10.19,15.486a1.634,1.634,0,0,0,1.569,1.7,1.7,1.7,0,0,0,0-3.392,1.634,1.634,0,0,0-1.569,1.7m9.965,0a1.578,1.578,0,1,0,1.577-1.7,1.635,1.635,0,0,0-1.577,1.7M6.373,14.943a1.232,1.232,0,0,0,1.181,1.276,1.28,1.28,0,0,0,0-2.552,1.232,1.232,0,0,0-1.181,1.276m18.375,0a1.184,1.184,0,1,0,1.181-1.276,1.232,1.232,0,0,0-1.181,1.276M9.931,11.106A1.184,1.184,0,1,0,11.112,9.83a1.227,1.227,0,0,0-1.181,1.276m11.26,0A1.184,1.184,0,1,0,22.372,9.83a1.24,1.24,0,0,0-1.181,1.276m-7.245,1.169a2.9,2.9,0,0,0,2.781,3.005,2.907,2.907,0,0,0,2.788-3.005A2.9,2.9,0,0,0,16.727,9.27a2.89,2.89,0,0,0-2.781,3.005" transform="translate(-6 -9.27)"/></clipPath></defs><g transform="translate(0 0)"><g class="b"><path class="a" d="M34.917,18.407,13.379,41.682-8.15,18.407,13.379-4.86Z" transform="translate(-2.63 -6.773)"/></g></g></svg>